Coordinates
version=1
nRows=14
nColumns=46
inDegrees=yes

Units are S.I. units (second, meters, Newtons, ...)
Angles are in degrees.

endheader
time	pelvis_tilt	pelvis_list	pelvis_rotation	pelvis_tx	pelvis_ty	pelvis_tz	bb_angle	bb_tx	bb_ty	bb_tz	hip_flexion_r	hip_adduction_r	hip_rotation_r	knee_angle_r	knee_angle_r_beta	ankle_angle_r	subtalar_angle_r	mtp_angle_r	crank_angle_r	hip_flexion_l	hip_adduction_l	hip_rotation_l	knee_angle_l	knee_angle_l_beta	ankle_angle_l	subtalar_angle_l	mtp_angle_l	crank_angle_l	lumbar_extension	lumbar_bending	lumbar_rotation	arm_flex_r	arm_add_r	arm_rot_r	elbow_flex_r	pro_sup_r	wrist_flex_r	wrist_dev_r	arm_flex_l	arm_add_l	arm_rot_l	elbow_flex_l	pro_sup_l	wrist_flex_l	wrist_dev_l
      7.50500000	    -19.38007405	     -5.79223390	      6.17181964	      0.33414410	      1.14961882	     -0.24673914	      0.00000000	      0.50000000	      0.00000000	      0.25000000	     51.91499064	     -1.20254164	     -3.53962717	     88.68443354	      1.54783536	    -16.17663687	    -14.13200782	      0.00000000	      0.00000000	     53.23311386	     -1.74243113	     12.60283331	     51.77432794	      0.90363249	     -7.60338504	    -13.54888334	      0.00000000	      0.00000000	    -59.16790364	      4.94094688	     -3.35804117	     78.35426850	     -5.48375725	     54.79053503	     24.49389793	     46.56746796	      0.00000000	      0.00000000	     64.50481584	    -20.40263207	     33.58861115	     61.47009978	     48.13242212	      0.00000000	      0.00000000
      7.51000000	    -19.35956182	     -6.62471372	      5.91300259	      0.33393579	      1.14873154	     -0.24750404	      0.00000000	      0.50000000	      0.00000000	      0.25000000	     53.19390042	     -0.64734081	     -3.94043620	     90.72268418	      1.58340955	    -14.79858271	    -13.91397730	      0.00000000	      0.00000000	     52.01458333	     -2.86084654	     12.73396298	     49.62426789	      0.86610686	     -9.01085040	    -12.92676282	      0.00000000	      0.00000000	    -59.10340827	      5.50855752	     -2.69467357	     78.54155579	     -5.34006512	     54.82612822	     24.53032930	     46.56733415	      0.00000000	      0.00000000	     64.39536784	    -20.61904043	     33.63766604	     61.35795433	     48.11854879	      0.00000000	      0.00000000
      7.51500000	    -19.27760784	     -7.13565846	      5.68772297	      0.33366197	      1.14794249	     -0.24876044	      0.00000000	      0.50000000	      0.00000000	      0.25000000	     54.44289359	     -0.54023036	     -4.06366286	     92.86326630	      1.62076975	    -12.68663743	    -12.06725045	      0.00000000	      0.00000000	     50.62288864	     -3.65671068	     12.58367458	     47.44446909	      0.82806220	    -10.96455059	    -13.14352690	      0.00000000	      0.00000000	    -59.05962298	      5.91350934	     -2.26823372	     78.76090395	     -5.06719835	     55.31426894	     23.98408023	     46.55565020	      0.00000000	      0.00000000	     64.53988556	    -20.88730172	     34.25946452	     60.96741814	     48.12642058	      0.00000000	      0.00000000
      7.52000000	    -19.32854325	     -7.92382172	      5.43372834	      0.33328861	      1.14704319	     -0.24981115	      0.00000000	      0.50000000	      0.00000000	      0.25000000	     55.86818106	     -0.20806270	     -4.57787027	     94.76948688	      1.65403958	    -11.76355284	    -12.14578657	      0.00000000	      0.00000000	     49.45691222	     -4.70501380	     12.65156622	     45.39487989	      0.79229012	    -12.05733410	    -12.44727003	      0.00000000	      0.00000000	    -58.92684125	      6.56658764	     -1.58359314	     78.93014485	     -4.87168361	     55.37789197	     24.02155480	     46.56176870	      0.00000000	      0.00000000	     64.46768057	    -21.10601854	     34.33254593	     60.81233619	     48.10883086	      0.00000000	      0.00000000
      7.52500000	    -19.44589891	     -8.64720205	      5.09550229	      0.33302861	      1.14625463	     -0.25099185	      0.00000000	      0.50000000	      0.00000000	      0.25000000	     57.34860038	     -0.00934583	     -5.08245587	     96.58007711	      1.68564034	    -10.71219562	    -11.96243901	      0.00000000	      0.00000000	     48.30790434	     -5.77401666	     12.46318222	     43.30317142	      0.75578292	    -13.54204721	    -11.78113676	      0.00000000	      0.00000000	    -58.74980272	      7.10760685	     -0.98161372	     79.10587567	     -4.67403205	     55.47457113	     23.98579261	     46.56221505	      0.00000000	      0.00000000	     64.37966251	    -21.31691497	     34.48998384	     60.58073367	     48.08804997	      0.00000000	      0.00000000
      7.53000000	    -19.57246348	     -9.25300350	      4.73788174	      0.33269444	      1.14551602	     -0.25212877	      0.00000000	      0.50000000	      0.00000000	      0.25000000	     58.86841034	      0.09706584	     -5.50170526	     98.32582726	      1.71610943	     -9.69489245	    -11.63429096	      0.00000000	      0.00000000	     47.12524698	     -6.77103167	     12.11155634	     41.22308609	      0.71947858	    -15.02767864	    -11.32390884	      0.00000000	      0.00000000	    -58.54817074	      7.58240789	     -0.48994849	     79.25339784	     -4.45848707	     55.61276674	     23.87148151	     46.55840318	      0.00000000	      0.00000000	     64.33608026	    -21.51247501	     34.72736464	     60.27887758	     48.06420914	      0.00000000	      0.00000000
      7.53500000	    -19.56392994	     -9.44390722	      4.37928197	      0.33228129	      1.14510588	     -0.25347203	      0.00000000	      0.50000000	      0.00000000	      0.25000000	     60.27876665	     -0.16217585	     -5.54104500	    100.08778630	      1.74686141	     -8.48618955	    -10.59263882	      0.00000000	      0.00000000	     45.62125968	     -7.39559669	     11.46198715	     39.05583941	      0.68165299	    -16.93863498	    -11.86354606	      0.00000000	      0.00000000	    -58.35921769	      7.75302413	     -0.17659511	     79.81359141	     -3.83803917	     57.92711433	     21.59284087	     46.59714879	      0.00000000	      0.00000000	     65.49141049	    -21.82388182	     37.47936234	     58.17533071	     48.06787830	      0.00000000	      0.00000000
      7.54000000	    -19.65107630	     -9.83553100	      3.95350761	      0.33211771	      1.14466185	     -0.25458317	      0.00000000	      0.50000000	      0.00000000	      0.25000000	     61.75880261	     -0.21001840	     -5.82373586	    101.63221166	      1.77381672	     -7.83074341	    -10.51274430	      0.00000000	      0.00000000	     44.29846958	     -8.31737963	     10.61025656	     37.05046427	      0.64665259	    -18.31148118	    -11.34166180	      0.00000000	      0.00000000	    -58.21636784	      8.05255736	      0.16736709	     79.86931627	     -3.66252354	     58.15807269	     21.63335264	     46.64098823	      0.00000000	      0.00000000	     65.40505209	    -22.02909333	     37.55710940	     57.89168765	     48.04278217	      0.00000000	      0.00000000
      7.54500000	    -19.79964101	    -10.22286054	      3.52719680	      0.33192518	      1.14427588	     -0.25583429	      0.00000000	      0.50000000	      0.00000000	      0.25000000	     63.29612673	     -0.34039136	     -6.13926572	    103.04301659	      1.79843991	     -7.20537602	    -10.42346475	      0.00000000	      0.00000000	     43.02400458	     -9.19643845	      9.88978100	     35.14282692	      0.61335804	    -19.36600288	    -10.62210421	      0.00000000	      0.00000000	    -58.03199637	      8.37613734	      0.55958567	     80.09030235	     -3.47792525	     58.28651425	     21.67272572	     46.66355043	      0.00000000	      0.00000000	     65.33883492	    -22.22712119	     37.65794968	     57.60210792	     48.01453187	      0.00000000	      0.00000000
      7.55000000	    -19.77629126	    -10.20299117	      2.96974159	      0.33206050	      1.14450494	     -0.25697613	      0.00000000	      0.50000000	      0.00000000	      0.25000000	     64.65386139	     -0.59266510	     -6.00336860	    104.36505099	      1.82151376	     -6.70065308	     -9.99789141	      0.00000000	      0.00000000	     41.34578510	     -9.86868413	      8.52926862	     33.11922509	      0.57803952	    -20.56612784	     -9.96101902	      0.00000000	      0.00000000	    -58.05935878	      8.28237636	      0.63026677	     80.12686164	     -3.22363894	     58.59862306	     21.57173458	     46.69860636	      0.00000000	      0.00000000	     65.49635656	    -22.41831413	     37.94768908	     56.97164823	     47.95567633	      0.00000000	      0.00000000
      7.55500000	    -19.72776542	    -10.29967981	      2.47432853	      0.33214364	      1.14467044	     -0.25811635	      0.00000000	      0.50000000	      0.00000000	      0.25000000	     65.96804060	     -0.82752879	     -6.01002266	    105.58612863	      1.84282559	     -5.88813996	     -9.70598461	      0.00000000	      0.00000000	     39.74405253	    -10.58958181	      7.27597045	     31.29822260	      0.54625703	    -21.33451653	     -8.98311003	      0.00000000	      0.00000000	    -58.09651475	      8.33188292	      0.85661614	     80.24486307	     -3.01109884	     58.87474713	     21.47112439	     46.72428807	      0.00000000	      0.00000000	     65.65684843	    -22.57839493	     38.33766371	     56.28787404	     47.90042896	      0.00000000	      0.00000000
      7.56000000	    -19.87115029	    -10.60829602	      2.12342423	      0.33200260	      1.14454980	     -0.25966473	      0.00000000	      0.50000000	      0.00000000	      0.25000000	     67.46846549	     -1.14636642	     -6.34263284	    106.60385730	      1.86058831	     -5.73301554	     -9.67663125	      0.00000000	      0.00000000	     38.55343999	    -11.30114229	      6.38526545	     29.79590879	      0.52003671	    -22.07296840	     -8.15754296	      0.00000000	      0.00000000	    -57.98679782	      8.76226544	      1.20483467	     80.47331681	     -2.89349134	     58.93088764	     21.52720593	     46.73582861	      0.00000000	      0.00000000	     65.62828738	    -22.73734613	     38.46529213	     55.99393558	     47.87233313	      0.00000000	      0.00000000
      7.56500000	    -19.62458870	    -10.35796260	      1.41596215	      0.33247337	      1.14530275	     -0.26074785	      0.00000000	      0.50000000	      0.00000000	      0.25000000	     68.57094631	     -1.35154358	     -5.95684611	    107.58988075	      1.87779766	     -5.43473788	     -9.14834498	      0.00000000	      0.00000000	     36.57953445	    -11.81717623	      4.54168796	     28.07363348	      0.48997734	    -22.95226890	     -6.97841128	      0.00000000	      0.00000000	    -58.21498169	      8.32282777	      1.18059609	     80.43927762	     -2.73012186	     59.16018198	     21.56946725	     46.77277884	      0.00000000	      0.00000000	     65.91802861	    -22.85813620	     39.01308274	     54.98869351	     47.78398213	      0.00000000	      0.00000000
      7.57000000	    -19.74524569	    -10.54393302	      1.01438839	      0.33254250	      1.14528967	     -0.26254635	      0.00000000	      0.50000000	      0.00000000	      0.25000000	     69.99698675	     -1.73998172	     -6.18827099	    108.37258716	      1.89145846	     -5.35003445	     -8.95385816	      0.00000000	      0.00000000	     35.35084277	    -12.35941038	      3.54996233	     26.73857652	      0.46667620	    -23.68973203	     -6.11513004	      0.00000000	      0.00000000	    -58.09369418	      8.62999566	      1.42984312	     80.52870769	     -2.68070018	     59.20313591	     21.66811915	     46.78921312	      0.00000000	      0.00000000	     65.83107596	    -22.97926823	     39.24510804	     54.54565575	     47.74644490	      0.00000000	      0.00000000
